<svg width="163" height="163" version="1.1" xmlns="http://www.w3.org/2000/svg" xmlns:xlink="http://www.w3.org/1999/xlink"><path d="M138.55 89.98L138.55 89.98Q137.74 91.12 135.29 91.12L135.29 91.12Q132.03 91.12 113.94 89.32L113.94 89.32L103.51 88.67Q82.31 88.67 47.60 93.07L47.60 93.07Q38.30 94.21 32.60 96.01L32.60 96.01L25.27 98.13Q20.21 98.78 14.83 94.21L14.83 94.21Q12.55 92.42 11.41 90.30L11.41 90.30Q11.41 88.51 12.39 87.69L12.39 87.69Q22.01 88.18 45.97 85.25L45.97 85.25Q59.33 83.78 67.64 83.78L67.64 83.78L68.30 83.78L68.79 51.51L54.12 52.49Q46.78 52.16 43.36 48.41L43.36 48.41Q43.36 46.78 45.48 46.46L45.48 46.46L52.81 45.97L68.62 43.85L68.62 20.05Q68.62 15.32 65.53 11.74L65.53 11.74Q52.32 13.04 47.27 11.74L47.27 11.74Q42.54 10.59 39.45 7.50L39.45 7.50Q39.45 6.68 41.24 5.54L41.24 5.54Q60.15 4.56 92.42-2.77L92.42-2.77Q95.03-3.42 98.13-3.42L98.13-3.42Q105.30-3.42 109.05 0.98L109.05 0.98Q109.21 2.45 108.40 3.42L108.40 3.42Q107.91 3.91 107.25 4.24L107.25 4.24Q104.65 5.70 83.78 8.80L83.78 8.80Q77.59 9.78 75.14 10.27L75.14 10.27Q79.22 12.39 79.22 16.79L79.22 16.79L78.40 25.59L77.91 41.40L77.91 41.57L92.75 38.47Q101.22 37.49 104.65 42.38L104.65 42.38Q104.32 46.46 82.97 49.06L82.97 49.06Q79.06 49.55 78.08 49.88L78.08 49.88L77.59 50.69L76.61 82.80Q95.52 81.66 108.07 79.87L108.07 79.87L122.09 77.43L122.74 77.43Q126.81 77.10 133.50 82.64L133.50 82.64Q138.55 86.88 138.55 89.98Z" stroke="#000" fill="black" /></svg>