<svg width="163" height="163" version="1.1" xmlns="http://www.w3.org/2000/svg" xmlns:xlink="http://www.w3.org/1999/xlink"><path d="M144.74 70.25L144.74 70.25Q128.93 75.47 121.44 75.47L121.44 75.47Q112.63 75.47 94.70 57.21L94.70 57.21L77.10 38.96Q73.02 35.04 70.25 33.09L70.25 33.09Q50.86 57.86 37.65 68.79L37.65 68.79Q29.67 75.31 21.84 79.22L21.84 79.22Q12.39 83.78 10.60 84.43L10.60 84.43Q7.99 85.25 5.54 85.25L5.54 85.25L5.22 84.92Q54.61 50.53 62.59 24.12L62.59 24.12Q64.06 19.40 64.06 15.00L64.06 15.00L65.04 14.51Q72.37 14.51 76.61 20.86L76.61 20.86Q77.26 21.84 77.75 22.82L77.75 22.82Q77.42 24.45 74.49 27.71L74.49 27.71Q73.84 28.36 73.35 29.01L73.35 29.01L77.26 31.13Q78.73 32.27 85.09 38.47L85.09 38.47Q86.06 39.61 86.88 40.26L86.88 40.26Q106.28 58.19 123.39 62.92L123.39 62.92L139.37 66.50Q142.30 67.48 144.25 68.46L144.25 68.46Q144.74 68.79 144.74 70.25ZM86.55 57.21L87.53 58.84Q87.04 61.12 81.99 61.94L81.99 61.94L65.20 64.71Q62.43 65.04 60.15 65.04L60.15 65.04Q53.95 65.04 49.72 62.43L49.72 62.43L49.23 60.96Q52.00 59.33 60.15 58.84L60.15 58.84Q61.13 58.68 61.94 58.68L61.94 58.68L76.61 55.09Q78.08 54.93 79.38 54.93L79.38 54.93Q83.13 54.93 86.55 57.21L86.55 57.21ZM102.04 152.73L102.04 152.73Q101.39 152.73 100.90 152.24L100.90 152.24Q100.73 152.08 96.66 147.03L96.66 147.03Q94.87 145.07 86.88 138.39L86.88 138.39Q86.23 137.73 85.58 137.25L85.58 137.25Q84.27 135.94 84.27 135.62L84.27 135.62Q92.42 136.27 96.66 136.27L96.66 136.27Q97.64 136.27 98.29 134.80L98.29 134.80L97.31 94.38Q96.98 83.29 96.33 80.52L96.33 80.52Q95.19 75.96 92.26 73.19L92.26 73.19Q92.26 71.72 94.38 70.74L94.38 70.74Q102.04 70.90 106.93 76.45L106.93 76.45Q104.65 86.88 104.65 99.92L104.65 99.92L107.25 129.26Q108.40 151.10 102.04 152.73ZM84.11 87.53L84.11 87.53L82.80 115.24Q82.15 121.76 81.01 123.06L81.01 123.06Q80.69 123.39 78.73 123.39L78.73 123.39Q75.31 119.97 75.96 107.74L75.96 107.74Q76.61 93.56 75.31 88.51L75.31 88.51Q74.98 86.88 74.33 85.57L74.33 85.57Q74.33 83.46 75.96 82.97L75.96 82.97Q81.34 84.43 84.11 87.53ZM68.79 81.99L68.79 81.99Q68.79 82.31 67.64 85.74L67.64 85.74Q67.48 86.06 67.32 86.55L67.32 86.55Q66.83 89.00 66.83 99.76L66.83 99.76Q66.83 107.58 67.81 123.23L67.81 123.23L68.46 134.47Q68.30 140.18 63.41 145.07L63.41 145.07Q63.08 145.56 62.59 145.88L62.59 145.88Q59.82 145.88 52.49 137.73L52.49 137.73Q48.74 133.50 47.43 132.52L47.43 132.52L47.43 132.03L58.52 133.17L58.68 133.17L59.98 130.40L59.82 92.42Q59.82 83.94 57.21 82.48L57.21 82.48Q54.77 82.64 42.54 85.41L42.54 85.41Q42.05 85.41 41.73 85.57L41.73 85.57Q40.59 89.00 40.59 96.17L40.59 96.17Q43.68 93.89 50.37 94.21L50.37 94.21Q56.07 94.38 56.23 97.47L56.23 97.47Q53.95 98.94 44.17 100.41L44.17 100.41Q41.57 100.73 39.94 101.06L39.94 101.06Q38.96 106.76 39.28 111.49L39.28 111.49Q39.45 112.31 39.45 113.12L39.45 113.12Q44.99 109.54 51.34 110.84L51.34 110.84Q53.46 111.17 54.93 112.14L54.93 112.14L56.23 113.94L54.77 115.24Q47.27 116.38 38.96 117.20L38.96 117.20L37.65 130.73Q36.19 137.41 32.11 140.83L32.11 140.83Q29.34 140.18 27.87 135.13L27.87 135.13Q27.55 133.82 27.55 133.01L27.55 133.01Q27.55 130.56 30.32 123.55L30.32 123.55Q30.64 122.41 30.81 121.60L30.81 121.60Q36.35 100.41 33.09 86.55L33.09 86.55Q32.44 83.78 31.46 81.34L31.46 81.34Q31.46 79.71 32.60 79.38L32.60 79.38Q36.19 79.71 40.10 81.99L40.10 81.99Q48.74 80.85 57.05 76.45L57.05 76.45Q64.22 76.94 68.79 81.99Z" stroke="#000" fill="black" /></svg>